# xmcd CD database file
#
# Track frame offsets:
#	150
#	23325
#	48975
#	73615
#	95588
#	124163
#	148168
#	172543
#	195118
#	219943
#	244695
#	273122
#	299149
#	323075
#
# Disc length: 4400 seconds
#
# Revision: 0
# Processed by: cddbd v1.5.1PL0 Copyright (c) Steve Scherf et al.
# Submitted via: CDex 1.51
#
DISCID=bf112e0e
DTITLE=Di Gi Charat - PARTY☆NIGHT 大全集（踊）
DYEAR=2004
DGENRE=Vocal
TTITLE0=PARTY☆NIGHT
TTITLE1=PARTY☆NIGHT -HYPER PARAPARA VERSION-
TTITLE2=PARTY☆NIGHT -Cyber Trance Version-
TTITLE3=PARTY☆NIGHT -真田アサミVersion-
TTITLE4=PARTY☆NIGHT （パラパラ・ライブ・バージョン）
TTITLE5=PARTY☆NIGHT -WHITE VERSION-
TTITLE6=PARTY☆NIGHT （2002 オリジナル・バージョン）
TTITLE7=PARTY☆NIGHT -G.G.F. Version-
TTITLE8=PARTY☆NIGHT -パラパラ・アレンジ・バージョン-
TTITLE9=PARTY☆NIGHT （Movie Version）
TTITLE10=PARTY☆NIGHT （2002.12.27横浜アリーナライブVer.）
TTITLE11=PARTY☆NIGHT （オールスターバージョン）
TTITLE12=After PARTY☆NIGHT
TTITLE13=PARTY☆NIGHT -Cyber Christmas Version- （TVsize）
EXTD=YEAR: 2004
EXTT0=
EXTT1=
EXTT2=
EXTT3=
EXTT4=
EXTT5=
EXTT6=
EXTT7=
EXTT8=
EXTT9=
EXTT10=
EXTT11=
EXTT12=
EXTT13=
PLAYORDER=
